<svg id="visual" viewBox="0 0 900 600" width="900" height="600" xmlns="http://www.w3.org/2000/svg" xmlns:xlink="http://www.w3.org/1999/xlink" version="1.1"><g stroke-width="1" stroke-linejoin="bevel"><path d="M461 282L563.5 290L464 198Z" fill="#0b3755" stroke="#0b3755"></path><path d="M563.5 290L579.5 212L464 198Z" fill="#195075" stroke="#195075"></path><path d="M579.5 212L576.5 120L464 198Z" fill="#124365" stroke="#124365"></path><path d="M563.5 290L655 267L579.5 212Z" fill="#042b46" stroke="#042b46"></path><path d="M579.5 212L646 170L576.5 120Z" fill="#3698c9" stroke="#3698c9"></path><path d="M655 267L646 170L579.5 212Z" fill="#1f5e85" stroke="#1f5e85"></path><path d="M461 282L458 389L563.5 290Z" fill="#2b7aa6" stroke="#2b7aa6"></path><path d="M563.5 290L666 396L655 267Z" fill="#124365" stroke="#124365"></path><path d="M576.5 120L417 110L464 198Z" fill="#1f5e85" stroke="#1f5e85"></path><path d="M464 198L327.5 211L461 282Z" fill="#2b7aa6" stroke="#2b7aa6"></path><path d="M461 282L325.5 295L458 389Z" fill="#001f37" stroke="#001f37"></path><path d="M458 389L582.5 399L563.5 290Z" fill="#195075" stroke="#195075"></path><path d="M417 110L327.5 211L464 198Z" fill="#001f37" stroke="#001f37"></path><path d="M327.5 211L325.5 295L461 282Z" fill="#195075" stroke="#195075"></path><path d="M763.5 184L684 126L646 170Z" fill="#1f5e85" stroke="#1f5e85"></path><path d="M646 170L684 126L576.5 120Z" fill="#3089b7" stroke="#3089b7"></path><path d="M576.5 120L443 0L417 110Z" fill="#001f37" stroke="#001f37"></path><path d="M582.5 399L666 396L563.5 290Z" fill="#124365" stroke="#124365"></path><path d="M655 267L763.5 184L646 170Z" fill="#124365" stroke="#124365"></path><path d="M417 110L336.5 111L327.5 211Z" fill="#0b3755" stroke="#0b3755"></path><path d="M325.5 295L348.5 403L458 389Z" fill="#3ba7da" stroke="#3ba7da"></path><path d="M458 389L592.5 475L582.5 399Z" fill="#042b46" stroke="#042b46"></path><path d="M467 521L592.5 475L458 389Z" fill="#124365" stroke="#124365"></path><path d="M582.5 399L592.5 475L666 396Z" fill="#3ba7da" stroke="#3ba7da"></path><path d="M681 0L570.5 0L576.5 120Z" fill="#1f5e85" stroke="#1f5e85"></path><path d="M417 110L443 0L336.5 111Z" fill="#124365" stroke="#124365"></path><path d="M570.5 0L443 0L576.5 120Z" fill="#3ba7da" stroke="#3ba7da"></path><path d="M780.5 315L763.5 184L655 267Z" fill="#001f37" stroke="#001f37"></path><path d="M684 126L681 0L576.5 120Z" fill="#0b3755" stroke="#0b3755"></path><path d="M336.5 111L250 222L327.5 211Z" fill="#195075" stroke="#195075"></path><path d="M327.5 211L250 222L325.5 295Z" fill="#2b7aa6" stroke="#2b7aa6"></path><path d="M325.5 295L242 371L348.5 403Z" fill="#3ba7da" stroke="#3ba7da"></path><path d="M794.5 427L780.5 315L666 396Z" fill="#001f37" stroke="#001f37"></path><path d="M666 396L780.5 315L655 267Z" fill="#3698c9" stroke="#3698c9"></path><path d="M348.5 403L467 521L458 389Z" fill="#0b3755" stroke="#0b3755"></path><path d="M250 222L230 300L325.5 295Z" fill="#0b3755" stroke="#0b3755"></path><path d="M348.5 403L328.5 487L467 521Z" fill="#195075" stroke="#195075"></path><path d="M801.5 95L681 0L684 126Z" fill="#256c96" stroke="#256c96"></path><path d="M573.5 600L678 494L592.5 475Z" fill="#124365" stroke="#124365"></path><path d="M592.5 475L678 494L666 396Z" fill="#001f37" stroke="#001f37"></path><path d="M230 300L242 371L325.5 295Z" fill="#001f37" stroke="#001f37"></path><path d="M242 371L328.5 487L348.5 403Z" fill="#1f5e85" stroke="#1f5e85"></path><path d="M443 0L305.5 0L336.5 111Z" fill="#3ba7da" stroke="#3ba7da"></path><path d="M336.5 111L193 79L250 222Z" fill="#042b46" stroke="#042b46"></path><path d="M250 222L126.5 283L230 300Z" fill="#3698c9" stroke="#3698c9"></path><path d="M900 193L801.5 95L763.5 184Z" fill="#042b46" stroke="#042b46"></path><path d="M763.5 184L801.5 95L684 126Z" fill="#195075" stroke="#195075"></path><path d="M678 494L794.5 427L666 396Z" fill="#3698c9" stroke="#3698c9"></path><path d="M780.5 315L900 270L763.5 184Z" fill="#1f5e85" stroke="#1f5e85"></path><path d="M305.5 0L193 79L336.5 111Z" fill="#256c96" stroke="#256c96"></path><path d="M467 521L573.5 600L592.5 475Z" fill="#3698c9" stroke="#3698c9"></path><path d="M678 494L785.5 528L794.5 427Z" fill="#3089b7" stroke="#3089b7"></path><path d="M420 600L573.5 600L467 521Z" fill="#195075" stroke="#195075"></path><path d="M328.5 487L420 600L467 521Z" fill="#042b46" stroke="#042b46"></path><path d="M900 68L815.5 0L801.5 95Z" fill="#1f5e85" stroke="#1f5e85"></path><path d="M801.5 95L815.5 0L681 0Z" fill="#0b3755" stroke="#0b3755"></path><path d="M900 415L900 270L780.5 315Z" fill="#256c96" stroke="#256c96"></path><path d="M900 270L900 193L763.5 184Z" fill="#042b46" stroke="#042b46"></path><path d="M230 300L126.5 283L242 371Z" fill="#0b3755" stroke="#0b3755"></path><path d="M242 371L216 494L328.5 487Z" fill="#2b7aa6" stroke="#2b7aa6"></path><path d="M328.5 487L329.5 600L420 600Z" fill="#001f37" stroke="#001f37"></path><path d="M118.5 217L126.5 283L250 222Z" fill="#256c96" stroke="#256c96"></path><path d="M121.5 429L216 494L242 371Z" fill="#195075" stroke="#195075"></path><path d="M688 600L785.5 528L678 494Z" fill="#124365" stroke="#124365"></path><path d="M794.5 427L900 415L780.5 315Z" fill="#0b3755" stroke="#0b3755"></path><path d="M573.5 600L688 600L678 494Z" fill="#124365" stroke="#124365"></path><path d="M305.5 0L200 0L193 79Z" fill="#3089b7" stroke="#3089b7"></path><path d="M128.5 112L118.5 217L250 222Z" fill="#0b3755" stroke="#0b3755"></path><path d="M128.5 112L250 222L193 79Z" fill="#001f37" stroke="#001f37"></path><path d="M216 494L329.5 600L328.5 487Z" fill="#042b46" stroke="#042b46"></path><path d="M127.5 0L128.5 112L193 79Z" fill="#001f37" stroke="#001f37"></path><path d="M900 482L900 415L794.5 427Z" fill="#0b3755" stroke="#0b3755"></path><path d="M900 193L900 68L801.5 95Z" fill="#124365" stroke="#124365"></path><path d="M126.5 283L121.5 429L242 371Z" fill="#256c96" stroke="#256c96"></path><path d="M216 494L220 600L329.5 600Z" fill="#1f5e85" stroke="#1f5e85"></path><path d="M109.5 487L121.5 429L0 487Z" fill="#1f5e85" stroke="#1f5e85"></path><path d="M688 600L781.5 600L785.5 528Z" fill="#001f37" stroke="#001f37"></path><path d="M785.5 528L900 482L794.5 427Z" fill="#124365" stroke="#124365"></path><path d="M900 600L900 482L785.5 528Z" fill="#3ba7da" stroke="#3ba7da"></path><path d="M900 68L900 0L815.5 0Z" fill="#3698c9" stroke="#3698c9"></path><path d="M0 109L0 224L118.5 217Z" fill="#2b7aa6" stroke="#2b7aa6"></path><path d="M200 0L127.5 0L193 79Z" fill="#256c96" stroke="#256c96"></path><path d="M143.5 600L220 600L216 494Z" fill="#3ba7da" stroke="#3ba7da"></path><path d="M0 369L121.5 429L126.5 283Z" fill="#042b46" stroke="#042b46"></path><path d="M121.5 429L109.5 487L216 494Z" fill="#1f5e85" stroke="#1f5e85"></path><path d="M0 109L118.5 217L128.5 112Z" fill="#256c96" stroke="#256c96"></path><path d="M118.5 217L0 287L126.5 283Z" fill="#2b7aa6" stroke="#2b7aa6"></path><path d="M0 600L143.5 600L109.5 487Z" fill="#2b7aa6" stroke="#2b7aa6"></path><path d="M109.5 487L143.5 600L216 494Z" fill="#256c96" stroke="#256c96"></path><path d="M0 224L0 287L118.5 217Z" fill="#0b3755" stroke="#0b3755"></path><path d="M781.5 600L900 600L785.5 528Z" fill="#3ba7da" stroke="#3ba7da"></path><path d="M0 287L0 369L126.5 283Z" fill="#0b3755" stroke="#0b3755"></path><path d="M127.5 0L0 109L128.5 112Z" fill="#3ba7da" stroke="#3ba7da"></path><path d="M127.5 0L0 0L0 109Z" fill="#3698c9" stroke="#3698c9"></path><path d="M0 369L0 487L121.5 429Z" fill="#042b46" stroke="#042b46"></path><path d="M0 487L0 600L109.5 487Z" fill="#1f5e85" stroke="#1f5e85"></path></g></svg>